<?xml version="1.0" standalone="no"?>
<!DOCTYPE svg PUBLIC "-//W3C//DTD SVG 20010904//EN"
 "http://www.w3.org/TR/2001/REC-SVG-20010904/DTD/svg10.dtd">
<svg version="1.0" xmlns="http://www.w3.org/2000/svg"
 width="283.000000pt" height="283.000000pt" viewBox="0 0 283.000000 283.000000"
 preserveAspectRatio="xMidYMid meet">
<metadata>
Created by potrace 1.11, written by Peter Selinger 2001-2013
</metadata>
<g transform="translate(0.000000,283.000000) scale(0.100000,-0.100000)"
fill="#000000" stroke="none">
<path d="M117 1952 c-23 -5 -21 -15 5 -27 30 -13 49 -51 148 -300 45 -115 91
-228 100 -250 9 -22 27 -66 40 -98 12 -32 28 -56 34 -54 6 2 52 102 103 222
51 120 95 220 97 223 3 3 8 -4 12 -14 4 -10 26 -68 49 -129 23 -60 59 -154 79
-207 25 -63 42 -95 50 -92 7 3 24 35 38 72 14 37 49 128 78 202 28 74 53 140
54 145 1 6 9 26 17 45 8 19 21 53 28 75 23 74 66 150 89 160 21 9 30 24 15 26
-5 0 -47 2 -96 2 -91 2 -115 -11 -54 -28 24 -8 33 -16 35 -36 3 -23 -119 -364
-136 -381 -6 -6 -133 309 -148 370 -8 28 11 52 42 52 29 0 32 20 4 21 -11 0
-86 1 -167 2 -146 0 -186 -9 -121 -28 25 -8 38 -22 59 -63 57 -115 57 -112 -2
-255 -29 -70 -56 -124 -60 -120 -11 13 -159 388 -159 404 0 20 20 39 42 39 20
0 25 19 6 21 -42 3 -267 3 -281 1z"/>
<path d="M1200 1952 c-21 -7 -9 -22 18 -22 16 0 37 -6 48 -14 18 -14 19 -30
20 -310 1 -327 1 -330 -61 -342 -80 -15 -23 -24 150 -24 117 0 185 4 185 10 0
6 -9 10 -21 10 -23 0 -60 18 -71 34 -4 6 -8 73 -8 149 l0 137 124 0 125 0 0
-122 c0 -68 -5 -138 -10 -155 -10 -31 -16 -35 -63 -37 -11 -1 -21 -7 -24 -14
-3 -9 40 -12 183 -12 145 0 186 3 182 13 -2 6 -10 11 -17 9 -21 -5 -68 18 -72
36 -3 10 -4 149 -4 310 1 279 2 294 20 308 11 8 32 14 48 14 15 0 28 5 28 10
0 6 -3 10 -7 11 -12 1 -336 1 -350 0 -26 -2 -12 -21 15 -21 16 0 37 -6 48 -14
17 -13 19 -27 19 -148 l0 -133 -122 -3 -123 -3 0 131 c0 117 2 132 20 150 11
11 33 20 51 20 19 0 29 4 27 12 -3 8 -55 11 -176 12 -95 1 -177 0 -182 -2z"/>
<path d="M2033 1952 c-32 -5 -29 -17 4 -20 15 -1 37 -9 50 -17 26 -17 25 -9
24 -425 -1 -223 -1 -224 -88 -229 -7 -1 -13 -6 -13 -12 0 -7 69 -9 223 -7 250
4 287 12 373 77 148 111 166 377 36 522 -81 90 -154 111 -402 113 -102 0 -195
0 -207 -2z m402 -73 c63 -44 94 -128 100 -271 5 -146 -28 -250 -94 -297 -38
-27 -110 -36 -136 -17 -19 13 -20 27 -20 308 -1 161 1 297 3 302 9 16 113 -2
147 -25z"/>
<path d="M2330 1200 c-11 -11 -18 -26 -14 -31 5 -8 9 -8 14 0 4 8 14 9 31 2
16 -5 31 -5 42 0 21 12 23 41 3 33 -8 -3 -24 -1 -35 5 -17 9 -24 8 -41 -9z"/>
<path d="M169 1137 c-110 -58 -72 -217 51 -217 41 0 81 19 88 40 4 11 0 11
-21 -3 -15 -9 -38 -17 -52 -17 -31 0 -65 32 -66 63 0 12 -2 29 -4 38 -5 27 23
79 50 89 31 12 72 -5 81 -33 5 -17 8 -18 15 -6 15 28 4 52 -27 55 -16 1 -39 5
-51 8 -13 3 -41 -5 -64 -17z"/>
<path d="M441 1152 c-107 -17 -132 -166 -36 -218 77 -41 175 12 175 96 0 21
-5 50 -11 63 -18 39 -78 67 -128 59z m53 -25 c13 -10 19 -32 23 -79 5 -61 4
-68 -20 -92 -48 -48 -87 -9 -87 89 0 78 39 115 84 82z"/>
<path d="M1625 1148 c-78 -22 -112 -104 -73 -176 28 -53 123 -70 172 -31 32
25 27 38 -6 15 -12 -9 -37 -16 -55 -16 -26 0 -36 6 -48 30 -17 34 -20 102 -4
131 23 44 105 43 116 -1 8 -31 23 -23 23 13 0 26 -4 32 -22 33 -13 0 -34 3
-48 6 -14 3 -38 1 -55 -4z"/>
<path d="M2104 1149 c-47 -13 -76 -51 -82 -107 -3 -41 0 -52 22 -79 15 -17 39
-34 55 -38 31 -7 38 -38 11 -55 -12 -8 -11 -10 5 -10 30 0 47 15 43 36 -2 14
7 24 34 36 21 9 38 22 38 28 0 14 -11 12 -34 -5 -27 -21 -70 -19 -90 4 -23 25
-32 93 -17 130 11 26 46 51 72 51 6 0 24 -14 40 -31 l29 -31 0 33 c0 28 -4 34
-22 34 -13 1 -34 3 -48 7 -14 3 -39 2 -56 -3z"/>
<path d="M2579 1148 c-92 -34 -105 -169 -19 -213 61 -31 137 -10 166 47 22 42
13 103 -19 136 -28 28 -92 43 -128 30z m71 -26 c39 -32 33 -159 -9 -181 -25
-13 -57 4 -69 36 -14 42 -6 122 14 144 21 24 36 24 64 1z"/>
<path d="M613 1140 c14 -9 17 -26 17 -102 0 -70 -4 -93 -15 -102 -12 -9 -9
-11 20 -12 34 -1 48 10 23 18 -8 3 -12 32 -13 87 l-1 82 17 -33 c10 -18 28
-59 40 -90 12 -32 25 -58 29 -58 4 0 20 30 36 68 53 127 54 127 52 32 -1 -60
-6 -88 -16 -96 -11 -8 0 -10 42 -10 54 1 71 8 42 19 -10 4 -14 28 -13 97 1 83
3 93 21 100 16 7 7 9 -30 9 l-52 1 -27 -65 c-16 -36 -31 -65 -34 -65 -3 0 -17
28 -31 63 l-25 62 -50 3 c-39 2 -46 0 -32 -8z"/>
<path d="M929 1141 c11 -7 15 -33 16 -97 1 -78 4 -89 24 -105 30 -24 92 -25
121 -1 20 16 23 29 25 98 2 43 3 85 4 92 1 16 46 16 59 -1 17 -20 14 -164 -4
-181 -20 -20 -19 -21 21 -22 29 0 33 2 22 14 -16 20 -20 157 -4 144 7 -6 39
-44 72 -86 33 -41 63 -75 66 -76 4 0 7 46 7 102 0 86 2 104 18 115 16 11 13
13 -26 13 -37 0 -41 -2 -27 -12 15 -12 23 -57 18 -107 0 -8 -24 15 -52 52
l-52 67 -86 0 c-63 -1 -81 -3 -68 -11 14 -8 17 -24 17 -82 0 -82 -16 -117 -55
-117 -34 0 -45 27 -45 114 0 61 3 77 18 85 13 8 3 10 -43 11 -39 0 -55 -3 -46
-9z"/>
<path d="M1413 1139 c14 -8 17 -25 17 -104 0 -57 -4 -95 -10 -95 -5 0 -10 -4
-10 -8 0 -5 21 -8 48 -7 58 3 56 2 40 19 -10 10 -14 37 -12 97 2 104 1 97 22
102 9 3 -12 5 -48 6 -49 0 -61 -2 -47 -10z"/>
<path d="M1861 1105 c-61 -137 -75 -165 -82 -165 -5 0 -9 -4 -9 -8 0 -4 17 -8
37 -9 33 -1 35 1 19 12 -29 21 -5 53 39 53 40 0 65 -29 46 -52 -9 -11 -1 -13
39 -12 27 0 50 4 50 9 0 4 -4 7 -8 7 -5 0 -28 45 -52 101 -24 55 -47 102 -51
105 -4 2 -17 -16 -28 -41z m29 -92 c0 -7 -11 -13 -25 -13 -29 0 -28 -2 -14 40
l12 33 13 -24 c7 -13 13 -30 14 -36z"/>
<path d="M2320 1049 c-25 -56 -50 -104 -57 -106 -23 -9 -14 -20 17 -20 24 0
29 4 25 17 -10 31 4 47 40 46 43 -1 64 -20 49 -44 -10 -15 -6 -17 42 -18 48 0
52 1 39 16 -8 8 -32 55 -53 103 -22 49 -43 92 -48 97 -6 6 -27 -30 -54 -91z
m54 -41 c-3 -4 -17 -8 -31 -8 -20 0 -24 4 -18 18 4 9 10 25 12 35 5 16 8 15
24 -9 10 -15 16 -31 13 -36z"/>
</g>
</svg>
